<svg width="224" height="234" viewBox="0 0 224 234" fill="none" xmlns="http://www.w3.org/2000/svg">
<g clip-path="url(#clip0_114_12578)">
<g clip-path="url(#clip1_114_12578)">
<g filter="url(#filter0_d_114_12578)">
<path fill-rule="evenodd" clip-rule="evenodd" d="M120.564 124.7H139.772L178.187 13.1H158.98L120.564 124.7Z" fill="#4A2399"/>
<path fill-rule="evenodd" clip-rule="evenodd" d="M101.357 124.7H120.565L158.98 13.1H139.773L101.357 124.7Z" fill="#A685FF"/>
<path fill-rule="evenodd" clip-rule="evenodd" d="M82.1494 124.7H101.357L139.772 13.1H120.565L82.1494 124.7Z" fill="#7950E5"/>
<mask id="mask0_114_12578" style="mask-type:alpha" maskUnits="userSpaceOnUse" x="82" y="13" width="97" height="112">
<path d="M120.565 13.1L82.1494 124.7H139.772L178.187 13.1H120.565Z" fill="#0F034A"/>
</mask>
<g mask="url(#mask0_114_12578)">
<path fill-rule="evenodd" clip-rule="evenodd" d="M90.6867 124.7H148.309L109.894 13.1H52.2715L90.6867 124.7Z" fill="#1A1A1A" fill-opacity="0.5"/>
</g>
<path fill-rule="evenodd" clip-rule="evenodd" d="M101.357 124.7H82.1495L43.7344 13.1H62.942L101.357 124.7Z" fill="#4A2399"/>
<path fill-rule="evenodd" clip-rule="evenodd" d="M139.772 124.7H120.565L82.1494 13.1H101.357L139.772 124.7Z" fill="#7950E5"/>
<path fill-rule="evenodd" clip-rule="evenodd" d="M120.565 124.7H101.358L62.9424 13.1H82.15L120.565 124.7Z" fill="#A685FF"/>
<mask id="mask1_114_12578" style="mask-type:alpha" maskUnits="userSpaceOnUse" x="43" y="13" width="136" height="112">
<path fill-rule="evenodd" clip-rule="evenodd" d="M43.7344 13.1L82.1495 124.7H101.357L101.357 124.699L101.358 124.7H120.565H120.565H139.772L178.187 13.1H158.98H158.98H139.773L120.565 68.9007L120.565 68.9L139.772 13.1H120.565L110.961 41L101.357 13.1H82.1501H82.1495H62.9425L91.7536 96.7992L91.7533 96.7999L62.942 13.1H43.7344Z" fill="#8966E0"/>
</mask>
<g mask="url(#mask1_114_12578)">
<rect x="32.7998" y="57.1" width="149.6" height="70.4" fill="url(#paint0_linear_114_12578)"/>
</g>
</g>
</g>
<mask id="mask2_114_12578" style="mask-type:alpha" maskUnits="userSpaceOnUse" x="43" y="13" width="136" height="112">
<path fill-rule="evenodd" clip-rule="evenodd" d="M43.7344 13.1L82.1495 124.7H101.357L101.357 124.699L101.358 124.7H120.565H120.565H139.772L178.187 13.1H158.98H158.98H139.773L120.565 68.9007L120.565 68.9L139.772 13.1H120.565L110.961 41L101.357 13.1H82.1501H82.1495H62.9425L91.7536 96.7992L91.7533 96.7999L62.942 13.1H43.7344Z" fill="#8966E0"/>
</mask>
<g mask="url(#mask2_114_12578)">
<rect x="32.7998" y="57.1" width="149.6" height="44" fill="url(#paint1_linear_114_12578)"/>
</g>
<path d="M109.893 210.107C146.468 210.107 176.117 179.795 176.117 142.403H43.6689C43.6689 179.795 73.3185 210.107 109.893 210.107Z" fill="#0F8F5B"/>
<path d="M109.893 74.7C73.3185 74.7 43.6689 105.012 43.6689 142.404H176.117C176.117 105.012 146.468 74.7 109.893 74.7Z" fill="#37D996"/>
<path d="M109.893 193.19C137.324 193.19 159.561 170.456 159.561 142.412H60.2246C60.2246 170.456 82.4618 193.19 109.893 193.19Z" fill="#7EF0C2"/>
<path d="M109.893 91.6302C82.4618 91.6302 60.2246 114.364 60.2246 142.408H159.561C159.561 114.364 137.324 91.6302 109.893 91.6302Z" fill="#23BB7E"/>
<path d="M109.893 185.661C132.752 185.661 151.283 166.716 151.283 143.346C151.283 119.976 132.752 101.031 109.893 101.031C87.0339 101.031 68.5029 119.976 68.5029 143.346C68.5029 166.716 87.0339 185.661 109.893 185.661Z" fill="url(#paint2_linear_114_12578)"/>
<path d="M53.9224 127.073C62.2053 95.4696 93.9793 76.7149 124.892 85.1829" stroke="#C8FFE9" stroke-width="17.6" stroke-linecap="round"/>
</g>
<defs>
<filter id="filter0_d_114_12578" x="8.53437" y="-4.50002" width="204.853" height="182" filterUnits="userSpaceOnUse" color-interpolation-filters="sRGB">
<feFlood flood-opacity="0" result="BackgroundImageFix"/>
<feColorMatrix in="SourceAlpha" type="matrix" values="0 0 0 0 0 0 0 0 0 0 0 0 0 0 0 0 0 0 127 0" result="hardAlpha"/>
<feOffset dy="17.6"/>
<feGaussianBlur stdDeviation="17.6"/>
<feComposite in2="hardAlpha" operator="out"/>
<feColorMatrix type="matrix" values="0 0 0 0 0.0597688 0 0 0 0 0.0333969 0 0 0 0 0.223861 0 0 0 0.6 0"/>
<feBlend mode="normal" in2="BackgroundImageFix" result="effect1_dropShadow_114_12578"/>
<feBlend mode="normal" in="SourceGraphic" in2="effect1_dropShadow_114_12578" result="shape"/>
</filter>
<linearGradient id="paint0_linear_114_12578" x1="107.6" y1="57.1" x2="107.6" y2="127.5" gradientUnits="userSpaceOnUse">
<stop stop-opacity="0"/>
<stop offset="0.988444"/>
</linearGradient>
<linearGradient id="paint1_linear_114_12578" x1="107.6" y1="57.1" x2="107.6" y2="101.1" gradientUnits="userSpaceOnUse">
<stop stop-opacity="0"/>
<stop offset="1"/>
</linearGradient>
<linearGradient id="paint2_linear_114_12578" x1="109.893" y1="101.031" x2="109.893" y2="185.661" gradientUnits="userSpaceOnUse">
<stop stop-color="#129D65"/>
<stop offset="1" stop-color="#7AF0C0"/>
</linearGradient>
<clipPath id="clip0_114_12578">
<rect width="176" height="228.8" fill="white" transform="translate(24 4.29999)"/>
</clipPath>
<clipPath id="clip1_114_12578">
<rect width="176" height="228.8" fill="white" transform="translate(24 4.29999)"/>
</clipPath>
</defs>
</svg>
